<svg id="Layer_1" data-name="Layer 1" xmlns="http://www.w3.org/2000/svg" xmlns:xlink="http://www.w3.org/1999/xlink" viewBox="0 0 445.56 456.59">
  <defs fill="#fffffffff">
    <style>
      .cls-1 {
        fill: #ffffff;
      }

      .cls-2 {
        fill: #7bc6ff;
      }

      .cls-3 {
        fill: url(#linear-gradient);
      }
    </style>
    <linearGradient id="linear-gradient" x1="-7.79" y1="-2476.6" x2="500.23" y2="-2053.17" gradientTransform="translate(0 2517.84)" gradientUnits="userSpaceOnUse" fill="#fffffffff">
      <stop offset="0" stop-color="#7bc6ff" fill="#fffffffff"/>
      <stop offset="1" stop-color="#1091f7" fill="#fffffffff"/>
    </linearGradient>
  </defs>
  <path class="cls-2" d="M411.54,25.89v-.06c-3.28-2.44-7.73-4.78-12.98-6.96-17.31-7.24-43.3-13-64.88-16.16,14.73,3.4,28.34,9.95,40.19,18.94v-.06c27.92,21.04,46.09,55.71,46.09,94.9V445.48H109.84c-9.57,0-18.89-1.3-27.75-3.7-2.51-.68-4.97-1.47-7.4-2.35,8.18,5.89,17.31,10.5,27.27,13.6,1,.32,2.02,.63,3.03,.92,8.86,2.41,23.32,2.99,32.89,2.99l307.68-.35h2.77V127.6c0-39.2-8.71-80.86-36.79-101.72h0Z" fill="#fffffffff"/>
  <path class="cls-3" d="M373.87,21.66C355.93,8.02,333.94,.03,310.17,.03H0V329.02c0,54.17,34.84,99.71,82.08,112.76,8.87,2.41,18.17,3.71,27.75,3.71H419.94V116.49c0-39.2-18.17-73.87-46.08-94.9v.06h.01Z" fill="#fffffffff"/>
  <g>
    <path class="cls-1" d="M252.91,360.52l-50.57-88.49,48.3-80.38c.54-.94,.73-1.99,.43-2.93-.05-.35-.22-.77-.38-1.06-.61-1.11-1.71-1.88-3.15-1.88h-26.42c-1.22,0-2.39,.69-3.04,1.82l-32.78,55.88-30.36-54.7-.54-1.06c-.66-1.18-1.82-1.88-3.15-1.88h-26.08c-2.82,0-4.54,3.29-3.09,5.88l45.75,80.2-52.29,88.66c-1.5,2.59,.22,5.88,3.04,5.88h25.58c1.22,0,2.39-.69,3.04-1.82l37.88-64.22,35.84,64.11c.66,1.18,1.82,1.88,3.09,1.88h25.87c2.82,0,4.54-3.29,3.09-5.81l-.05-.06h0l-.02-.02Z" fill="#fffffffff"/>
    <path class="cls-1" d="M382.96,300.58c-1.22-5.7-2.39-9.76-3.44-12.22-2.55-6.22-7.48-12.35-14.84-18.33-.05,0-.16-.11-.27-.17-.49-.47-1.05-.89-1.61-1.3h-.05l-.27-.3c-7.09-5.36-14.68-9.59-22.82-12.69-12.74-4.87-19.56-7.57-20.49-8.05-8.14-4.53-12.19-10.39-12.19-17.57,0-5.88,2.6-10.56,7.82-14.16,4.65-3.23,9.8-4.87,15.46-4.87,9.64,0,18.83,3.23,27.7,9.7,1.55,1.11,3.66,.89,4.87-.58l13.24-16.27c1.22-1.47,1.22-3.71-.05-5.12-1.11-1.18-2.28-2.35-3.5-3.4q-.24-.21,0,0c1.22,1.06-.33-.35-.54-.47-.05-.06-.16-.17-.33-.24-10.02-8.4-23.49-12.58-40.38-12.58-14,0-26.26,4.06-36.89,12.22-11.69,9.15-17.5,20.98-17.5,35.43,0,16.45,6.7,29.38,19.99,38.6,.11,.06,.27,.11,.38,.17,0,0,.05,0,.11,.06,.38,.17,.84,.35,1.22,.52,11.85,5.75,23.76,11.58,35.62,17.5,13.35,6.7,20.05,14.99,20.05,24.91,0,8.35-2.5,15.28-7.36,20.92-4.94,5.64-11.29,8.46-19.1,8.46-14-2.05-26.31-8.52-36.77-19.46-.66-.58-1.32-1.3-1.93-2.05-.43-.47-.94-1-1.32-1.52-1.39-1.65-3.77-1.76-5.32-.17l-14,14.86c-1.39,1.52-1.44,3.95,0,5.47,5.43,5.7,11.34,11.63,17.73,17.81,2.44,2.24,4.99,4.17,7.65,5.88,.16,.17,.43,.3,.61,.35s.27,.17,.38,.3c9.14,5.58,19.78,8.35,31.9,8.35,15.01,0,28.47-5.75,40.22-17.22,11.74-11.46,17.62-25.15,17.62-40.96,0-3.71-.43-7.63-1.39-11.75l-.11-.06-.05-.02-.04,.05v-.03Z" fill="#fffffffff"/>
  </g>
</svg>