<?xml version="1.0" encoding="UTF-8" standalone="no"?>
<!DOCTYPE svg PUBLIC "-//W3C//DTD SVG 1.1//EN" "http://www.w3.org/Graphics/SVG/1.1/DTD/svg11.dtd">
<svg height="100%" stroke-miterlimit="10" style="fill-rule:nonzero;clip-rule:evenodd;stroke-linecap:round;stroke-linejoin:round;" version="1.1" viewBox="0 0 1350 1415" width="100%" xml:space="preserve" xmlns="http://www.w3.org/2000/svg" xmlns:vectornator="http://vectornator.io" xmlns:xlink="http://www.w3.org/1999/xlink">
<defs/>
<clipPath id="ArtboardFrame">
<rect height="1415" width="1350" x="0" y="0"/>
</clipPath>
<g clip-path="url(#ArtboardFrame)" id="Layer-1" vectornator:layerName="Layer 1">
<path d="M970.096-0.928098C953.576-1.32143 791.325-0.751269 483.346 0.821902C175.366 2.39524 20.2063 3.39733 17.8464 3.79065C15.4864 4.18399 12.5107 5.55549 8.97135 7.91565C5.43135 10.2757 3.08891 15.9628 1.90885 25.0094C0.728852 34.0561 0.529039 39.3735 1.3151 40.9469C2.10177 42.5202 2.50254 218.549 2.5026 569.009C2.5026 919.469 2.87223 1098.41 3.65885 1105.88C4.44552 1113.36 6.21796 1123.59 8.97135 1136.57C11.7247 1149.55 15.2698 1162.73 19.5964 1176.1C23.923 1189.48 29.4403 1203.26 36.1276 1217.42C42.8143 1231.58 48.9021 1242.98 54.4089 1251.63C59.9155 1260.29 69.7495 1272.66 83.9089 1288.79C98.0689 1304.92 111.046 1317.52 122.846 1326.57C134.646 1335.62 146.253 1343.68 157.659 1350.76C169.066 1357.84 183.244 1365.7 200.159 1374.35C217.072 1383.01 230.05 1388.89 239.096 1392.04C248.143 1395.19 262.692 1398.93 282.753 1403.26C302.813 1407.59 322.081 1410.93 340.565 1413.29C359.052 1415.65 525.816 1416.05 840.878 1414.48C1155.94 1412.9 1317.02 1411.9 1324.1 1411.51C1331.18 1411.12 1336.87 1409.74 1341.19 1407.38C1345.52 1405.02 1348.29 1399.34 1349.47 1390.29C1350.65 1381.24 1351.05 1198.12 1350.66 840.978C1350.27 483.831 1349.06 299.372 1347.1 287.572C1345.13 275.772 1339.81 258.278 1331.16 235.072C1322.51 211.865 1313.28 191.798 1303.44 174.884C1293.61 157.971 1282.2 142.05 1269.22 127.103C1256.24 112.156 1242.87 99.1478 1229.1 88.1344C1215.33 77.1211 1202.55 68.0894 1190.75 61.0094C1178.95 53.9294 1169.52 49.0128 1162.44 46.2594C1155.36 43.5061 1148.47 40.1614 1141.78 36.2282C1135.1 32.2948 1125.66 28.1802 1113.47 23.8532C1101.28 19.5265 1078.47 14.4094 1045.03 8.5094C1011.6 2.6094 986.614-0.534762 970.096-0.928098ZM903.409 46.8532C957.296 46.8532 997.228 48.8261 1023.19 52.7594C1049.15 56.6927 1069.62 60.8074 1084.57 65.1344C1099.51 69.4611 1120.35 79.0943 1147.1 94.0407C1173.84 108.987 1190.37 118.821 1196.66 123.541C1202.95 128.261 1210.21 134.749 1218.47 143.009C1226.73 151.269 1235.79 162.105 1245.63 175.478C1255.46 188.851 1264.89 205.173 1273.94 224.447C1282.99 243.72 1289.47 260.243 1293.41 274.009C1297.34 287.776 1299.72 297.609 1300.5 303.509C1301.29 309.409 1301.86 487.782 1302.25 838.634C1302.45 1014.06 1302.65 1189.49 1302.85 1364.92C1146.69 1365.51 990.562 1366.08 834.409 1366.67C522.102 1367.85 353.163 1366.48 327.596 1362.54C302.03 1358.61 280.961 1354.09 264.44 1348.98C247.92 1343.86 227.681 1334.43 203.69 1320.67C179.697 1306.9 164.748 1297.63 158.846 1292.92C152.946 1288.2 144.885 1280.54 134.659 1269.92C124.432 1259.3 115.369 1248.49 107.503 1237.48C99.6359 1226.46 92.9473 1215.83 87.4401 1205.6C81.9334 1195.38 76.4462 1183.2 70.9401 1169.04C65.4334 1154.88 61.0861 1141.7 57.9401 1129.51C54.7934 1117.32 52.6514 1098.82 51.4714 1074.04C50.2914 1049.26 49.6907 872.461 49.6901 543.634C49.6901 379.221 49.6901 214.798 49.6901 50.3844C178.507 49.7944 307.342 49.2244 436.159 48.6344C693.792 47.4544 849.523 46.8531 903.409 46.8532ZM1008.44 548.353C994.673 548.353 979.921 549.925 964.19 553.072C948.457 556.219 934.11 560.533 921.128 566.041C908.148 571.547 897.916 576.665 890.44 581.384C882.967 586.104 874.305 592.994 864.471 602.041C854.638 611.087 847.179 619.148 842.065 626.228C836.952 633.308 831.634 643.543 826.128 656.916C820.621 670.289 817.076 681.696 815.503 691.134C813.929 700.574 813.159 711.577 813.159 724.166C813.159 736.752 813.729 746.586 814.909 753.666C816.089 760.746 818.263 768.607 821.409 777.259C824.556 785.913 830.642 796.748 839.69 809.728C848.737 822.708 857.998 833.511 867.44 842.166C876.88 850.819 884.941 857.508 891.628 862.228C898.314 866.948 907.349 872.466 918.753 878.759C930.159 885.053 939.022 889.368 945.315 891.728C951.608 894.088 955.921 896.461 958.284 898.822C960.644 901.182 969.908 907.469 986.034 917.697C1002.16 927.924 1012.36 935.184 1016.69 939.509C1021.02 943.836 1024.76 948.753 1027.91 954.259C1031.06 959.766 1033.03 964.313 1033.82 967.853C1034.6 971.393 1034.8 975.308 1034.41 979.634C1034.02 983.961 1029.5 990.65 1020.85 999.697C1012.19 1008.74 1005.51 1014.06 1000.78 1015.63C996.064 1017.21 988.974 1017.61 979.534 1016.82C970.094 1016.04 960.26 1013.66 950.034 1009.73C939.807 1005.79 924.656 996.762 904.596 982.603C884.536 968.443 872.931 959.581 869.784 956.041C866.637 952.501 862.525 950.127 857.409 948.947C852.296 947.767 847.78 947.966 843.846 949.541C839.913 951.114 829.477 960.377 812.565 977.291C795.652 994.204 784.447 1005.61 778.94 1011.51C773.433 1017.41 769.888 1022.53 768.315 1026.85C766.742 1031.18 767.143 1036.27 769.503 1042.17C771.863 1048.07 774.204 1051.81 776.565 1053.38C778.925 1054.96 784.041 1060.68 791.909 1070.51C799.776 1080.34 807.266 1088.6 814.346 1095.29C821.426 1101.98 829.688 1108.67 839.128 1115.35C848.568 1122.04 860.944 1129.3 876.284 1137.17C891.624 1145.03 903.43 1150.35 911.69 1153.1C919.95 1155.86 929.982 1158.4 941.784 1160.76C953.584 1163.12 966.158 1164.32 979.534 1164.32C992.907 1164.32 1008.63 1162.15 1026.72 1157.82C1044.81 1153.5 1059.56 1149.18 1070.97 1144.85C1082.38 1140.53 1094.18 1134.61 1106.38 1127.13C1118.57 1119.66 1128.6 1112 1136.47 1104.13C1144.34 1096.27 1151.83 1086.84 1158.91 1075.82C1165.99 1064.81 1172.28 1053 1177.78 1040.42C1183.29 1027.83 1187.2 1015.62 1189.57 1003.82C1191.93 992.022 1193.13 980.817 1193.13 970.197C1193.13 959.577 1192.33 949.343 1190.75 939.509C1189.18 929.676 1185.43 917.701 1179.53 903.541C1173.63 889.381 1167.35 877.374 1160.66 867.541C1153.97 857.707 1145.71 847.874 1135.88 838.041C1126.04 828.207 1116.81 820.147 1108.16 813.853C1099.51 807.56 1087.3 799.901 1071.57 790.853C1055.83 781.806 1041.69 774.516 1029.1 769.009C1016.51 763.503 1004.5 757.614 993.096 751.322C981.69 745.029 974.631 740.683 971.878 738.322C969.124 735.962 966.753 732.417 964.784 727.697C962.817 722.977 961.849 719.632 961.846 717.666C961.846 715.699 963.218 712.554 965.971 708.228C968.725 703.901 974.042 700.188 981.909 697.041C989.776 693.894 1000.78 692.694 1014.94 693.478C1029.1 694.265 1045.02 698.612 1062.72 706.478C1080.42 714.345 1092.23 718.058 1098.13 717.666C1104.03 717.272 1108.34 715.898 1111.1 713.541C1113.85 711.181 1123.11 698.003 1138.85 674.009C1154.58 650.016 1163.01 636.069 1164.19 632.134C1165.37 628.201 1165.57 624.054 1164.78 619.728C1164 615.401 1162.82 611.889 1161.25 609.134C1159.68 606.381 1156.93 603.406 1153 600.259C1149.07 597.113 1142.58 593 1133.53 587.884C1124.49 582.771 1111.51 576.483 1094.6 569.009C1077.68 561.536 1062.53 556.219 1049.16 553.072C1035.79 549.925 1022.2 548.354 1008.44 548.353ZM1013.75 596.134C1023.98 596.528 1033.04 597.7 1040.91 599.666C1048.78 601.632 1059.78 605.78 1073.94 612.072C1088.1 618.365 1097.73 623.08 1102.85 626.228C1107.96 629.375 1110.7 631.746 1111.1 633.322C1111.49 634.895 1107.78 641.182 1099.91 652.197C1092.04 663.21 1083.38 666.355 1073.94 661.634C1064.5 656.914 1053.09 652.968 1039.72 649.822C1026.35 646.675 1012.96 645.306 999.596 645.697C986.223 646.09 975.216 647.865 966.565 651.009C957.912 654.156 949.853 658.67 942.378 664.572C934.904 670.472 928.585 677.961 923.471 687.009C920.986 691.406 919.089 695.804 917.721 700.197C917.451 702.372 917.159 704.541 916.753 707.322C916.519 708.923 916.254 710.49 916.003 712.072C915.902 713.73 915.843 715.628 915.69 716.916C915.584 717.815 915.425 718.488 915.284 719.228C915.295 725.909 915.752 731.883 917.003 736.572C918.576 742.472 921.321 748.759 925.253 755.447C929.186 762.134 934.306 768.224 940.596 773.728C946.89 779.235 967.725 791.042 1003.13 809.134C1038.53 827.228 1062.14 840.406 1073.94 848.666C1085.74 856.926 1095.37 864.787 1102.85 872.259C1110.32 879.733 1117.98 890.168 1125.85 903.541C1133.71 916.914 1138.83 927.919 1141.19 936.572C1143.55 945.225 1144.92 954.086 1145.32 963.134C1145.71 972.181 1145.14 981.413 1143.57 990.853C1141.99 1000.29 1139.82 1008.55 1137.07 1015.63C1134.31 1022.71 1129.4 1032.15 1122.32 1043.95C1115.24 1055.75 1109.51 1064.01 1105.19 1068.73C1100.86 1073.45 1095.58 1077.97 1089.28 1082.29C1082.99 1086.62 1073.36 1091.53 1060.38 1097.04C1047.4 1102.55 1034.02 1107.09 1020.25 1110.63C1006.49 1114.17 994.677 1116.12 984.846 1116.51C975.013 1116.9 964.378 1116.13 952.971 1114.17C941.565 1112.2 929.389 1108.65 916.409 1103.54C903.429 1098.43 889.082 1090.57 873.346 1079.95C857.613 1069.33 845.008 1059.49 835.565 1050.45C830.845 1045.92 826.128 1041.41 821.409 1036.88C826.916 1031.18 832.433 1025.46 837.94 1019.76C848.953 1008.35 855.044 1002.63 856.221 1002.63C857.401 1002.63 864.293 1008.15 876.878 1019.17C889.464 1030.18 900.667 1038.44 910.503 1043.95C920.336 1049.45 931.541 1054.17 944.128 1058.1C956.714 1062.04 969.489 1064.21 982.471 1064.6C995.451 1065 1005.28 1064.2 1011.97 1062.23C1018.66 1060.26 1025.95 1056.92 1033.82 1052.2C1041.68 1047.48 1048.98 1041.59 1055.66 1034.51C1062.35 1027.43 1067.83 1020.34 1072.16 1013.26C1076.49 1006.18 1079.23 1000.69 1080.41 996.759C1081.59 992.826 1082.19 986.336 1082.19 977.291C1082.19 968.244 1081.59 961.354 1080.41 956.634C1079.23 951.914 1077.29 946.395 1074.53 940.103C1071.78 933.81 1067.64 926.92 1062.13 919.447C1056.62 911.974 1050.13 905.114 1042.66 898.822C1035.19 892.529 1022.21 883.265 1003.72 871.072C985.235 858.879 970.688 850.418 960.065 845.697C949.445 840.977 937.634 834.288 924.659 825.634C911.679 816.981 900.276 807.348 890.44 796.728C880.607 786.108 874.118 777.678 870.971 771.384C867.825 765.091 865.284 758.403 863.315 751.322C861.348 744.242 859.948 735.379 859.159 724.759C858.372 714.139 859.169 703.905 861.534 694.072C863.894 684.239 866.067 677.18 868.034 672.853C870.001 668.526 873.543 663.01 878.659 656.322C883.772 649.635 890.061 642.944 897.534 636.259C905.007 629.573 913.638 623.482 923.471 617.978C933.305 612.471 942.968 608.124 952.409 604.978C961.849 601.831 971.851 599.49 982.471 597.916C993.091 596.342 1003.53 595.742 1013.75 596.134ZM460.567 815.28C469.856 831.693 474.503 840.258 474.503 840.978C474.503 842.551 448.717 887.002 397.19 974.322C345.663 1061.64 318.739 1108.07 316.378 1113.57C314.018 1119.08 312.846 1123.39 312.846 1126.54C312.846 1129.69 314.018 1133.43 316.378 1137.76C318.738 1142.09 321.08 1144.83 323.44 1146.01C325.8 1147.19 350.013 1147.39 396.034 1146.6C442.054 1145.82 480.786 1119.26 512.253 1066.95C527.986 1040.79 543.705 1014.63 559.44 988.478C569.863 1006.77 580.298 1025.06 590.721 1043.35C611.568 1079.93 627.121 1105.89 637.346 1121.23C647.573 1136.57 674.099 1144.06 716.971 1143.67C759.845 1143.27 783.457 1141.1 787.784 1137.17C792.111 1133.23 794.653 1130.49 795.44 1128.92C796.227 1127.34 796.628 1124 796.628 1118.88C796.628 1113.77 795.456 1108.45 793.096 1102.95C790.736 1097.44 766.154 1054.56 719.346 974.322C672.54 894.082 648.556 852.005 647.378 848.072C646.198 844.139 666.032 808.148 706.94 740.103C747.847 672.056 773.031 629.579 782.471 612.666C791.911 595.752 797.428 584.346 799.003 578.447C800.576 572.547 800.376 568.403 798.409 566.041C796.442 563.681 771.057 562.309 722.284 561.916C697.897 561.719 679.117 561.634 665.94 561.634C652.763 561.634 645.187 561.718 643.221 561.916C639.288 562.309 636.944 563.113 636.159 564.291C635.372 565.471 622.595 587.681 597.815 630.947C585.425 652.58 573.016 674.221 560.628 695.853C559.841 695.263 559.07 694.661 558.284 694.072C556.711 692.892 543.533 670.682 518.753 627.416C508.913 610.236 497.256 596.545 483.878 586.197C458.706 587.165 435.597 586.763 411.221 584.853C408.847 584.667 404.37 583.827 400.628 583.259C382.714 583.332 363.157 583.01 341.565 582.447C341.419 583.257 341.382 583.72 341.159 584.759C341.118 584.948 340.921 585.026 340.846 585.197C340.85 585.351 340.884 585.474 340.878 585.666C340.861 586.173 340.803 586.869 340.753 587.291C340.667 588.001 340.483 588.82 340.346 589.572C340.496 589.951 340.551 590.39 340.565 590.853C340.86 591.42 341.132 592.017 341.128 592.697C341.123 593.364 340.982 594.099 340.753 594.822C340.574 595.383 340.32 595.879 340.065 596.322C340.066 597.072 340.074 599.603 340.065 600.666C340.05 602.496 339.937 602.965 339.878 603.947C344.358 612.487 352.249 626.71 363.835 647.101M633.44 667.916C646.017 646.673 656.407 630.363 667.628 614.384C668.169 612.21 669.886 610.559 672.128 610.134C672.363 610.062 672.571 609.926 672.815 609.884C673.549 609.759 674.295 609.783 675.034 609.947C681.582 609.779 687.567 610.021 693.253 610.572C694.491 610.39 695.718 610.267 696.909 610.291C707.332 610.487 717.767 610.688 728.19 610.884C710.49 640.384 692.796 669.884 675.096 699.384C639.696 758.384 616.887 797.718 606.659 817.384C596.432 837.051 615.095 888.391 662.69 971.384C686.487 1012.88 710.3 1054.39 734.096 1095.88C724.263 1095.69 714.43 1095.49 704.596 1095.29C684.93 1094.9 657.202 1063.02 621.409 999.697C585.616 936.37 566.35 902.925 563.596 899.384C562.22 897.614 560.817 895.872 559.44 894.103C539.577 927.93 519.742 961.745 499.878 995.572C460.151 1063.23 430.248 1097.44 410.19 1098.23C400.16 1098.62 390.126 1099.02 380.096 1099.42C405.27 1056.35 430.454 1013.27 455.628 970.197C505.974 884.057 531.129 840.408 531.128 839.228C531.128 838.048 526.612 830.758 517.565 817.384C508.518 804.011 486.309 766.25 450.909 704.103C433.209 673.03 415.485 641.958 397.784 610.884C407.224 610.884 416.687 610.884 426.128 610.884C445.008 610.884 454.841 611.285 455.628 612.072C456.414 612.859 467.62 632.525 489.253 671.072C510.886 709.619 528.179 739.319 541.159 760.166C547.649 770.589 554.138 780.994 560.628 791.416C578.131 761.129 595.655 730.859 613.159 700.572C620.234 688.329 626.945 677.669 633.44 667.916M377.371 670.802L396.866 704.594M363.835 647.101C367.891 654.239 372.398 662.132 377.371 670.802M407.815 723.572L420.544 745.606M439.328 778.124C448.017 793.23 455.097 805.615 460.567 815.28M420.544 745.606L439.328 778.124M396.866 704.594L407.815 723.572" fill="#000000" fill-rule="nonzero" opacity="1" stroke="none"/>
<path d="M547.407 697.748C533.983 665.867 512.901 637.619 497.835 606.545C495.45 601.626 490.951 593.538 486.387 585.663" fill="none" opacity="1" stroke="#000000" stroke-linecap="round" stroke-linejoin="round" stroke-width="15.2904"/>
<g opacity="1">
<path d="M483.406 577.125C474.041 578.914 464.621 580.094 455.156 581.219C452.221 581.567 449.285 582.051 446.344 582.344C443.839 582.593 441.319 582.666 438.812 582.906C406.56 585.996 373.889 585.504 341.75 581.344C364.418 586.544 387.502 589.664 410.656 591.688C420.125 592.515 429.625 593.221 439.125 593.562C441.709 593.655 444.291 593.521 446.875 593.531C450.429 593.545 453.977 593.684 457.531 593.562C466.996 593.24 476.424 592.243 485.781 590.812C489.568 590.162 492.088 586.568 491.438 582.781C490.787 578.994 487.193 576.474 483.406 577.125Z" fill="#000000" stroke="none"/>
</g>
<g opacity="1">
<path d="M469.125 578.656C466.044 578.41 462.925 578.542 459.844 578.719C456.056 578.936 452.323 579.468 448.562 579.938C447.159 580.113 445.753 580.152 444.344 580.25C442.831 580.355 441.322 580.579 439.812 580.719C437.169 580.963 434.525 580.937 431.875 581.062C427.04 581.291 422.225 581.639 417.406 582.094C404.989 583.265 392.617 585.11 380.188 586.156C376.4 586.475 372.605 586.659 368.812 586.906C372.614 587.147 376.413 587.455 380.219 587.625C392.65 588.181 405.101 587.973 417.531 588.594C422.208 588.827 426.914 589.177 431.562 589.75C435.242 590.204 438.889 590.89 442.594 591.125C444.739 591.261 446.884 591.159 449.031 591.25C453.067 591.421 457.086 591.565 461.125 591.656C462.45 591.686 463.771 591.782 465.094 591.875C465.387 592.751 465.812 593.581 466.469 594.312C469.036 597.171 473.454 597.411 476.312 594.844C478.673 592.636 480.493 589.7 479.938 586.312C479.841 585.725 479.731 585.111 479.5 584.562C479.217 583.89 478.832 583.249 478.406 582.656C478.058 582.172 477.633 581.772 477.188 581.375C476.504 580.766 475.672 580.283 474.844 579.906C473.063 579.095 471.059 578.811 469.125 578.656ZM422.031 579.594C420.045 579.553 418.264 580.379 416.969 581.688C413.833 581.697 410.697 581.739 407.562 581.781C402.219 581.853 396.875 581.901 391.531 581.969C387.456 582.02 383.356 582.125 379.281 581.969C374.049 581.768 368.828 581.41 363.594 581.25C361.644 581.19 359.667 581.112 357.719 581.281C356.985 581.345 356.174 581.428 355.5 581.75C355.191 581.898 354.869 582.041 354.625 582.281C354.192 582.708 353.729 583.144 353.531 583.719C353.298 584.397 353.266 585.166 353.375 585.875C353.45 586.364 353.786 586.777 354.062 587.188C354.322 587.573 354.847 587.972 355.25 588.219C356.916 589.24 358.985 589.751 360.844 590.281C363.99 591.179 367.226 591.771 370.469 592.188C379.22 593.311 388.125 593.084 396.906 592.469C399.469 592.289 402.006 591.896 404.562 591.656C409.039 591.965 413.521 592.291 418 592.562C418.198 592.574 418.396 592.583 418.594 592.594C419.542 593.112 420.594 593.476 421.75 593.5C424.065 593.512 426.377 593.712 428.688 593.844C432.895 594.083 437.104 594.339 441.312 594.562C445.869 594.805 450.438 595.034 455 595.125C456.425 595.153 457.894 595.232 459.312 595.062C459.815 595.003 460.336 595.022 460.781 594.781C461.789 594.237 462.741 593.595 463.719 593C464.414 592.577 465.147 590.828 465.312 590.156C465.394 589.826 465.473 589.495 465.5 589.156C465.536 588.71 465.557 588.257 465.5 587.812C465.44 587.344 465.337 586.886 465.188 586.438C467.252 586.48 469.312 586.439 471.375 586.594C469.267 586.32 467.147 586.183 465.031 586.031C464.813 585.514 464.554 585.012 464.219 584.562C463.575 583.701 462.638 583.035 461.688 582.531C460.588 581.948 459.237 581.945 458.031 581.906C456.591 581.86 455.159 581.835 453.719 581.812C446.641 581.43 439.566 580.899 432.5 580.344C429.017 580.07 425.525 579.698 422.031 579.594Z" fill="#000000" stroke="none"/>
</g>
<g opacity="1">
<path d="M478.312 566.219C478.258 566.203 478.166 566.267 478.094 566.281C477.917 566.315 477.736 566.326 477.562 566.375C477.19 566.48 476.836 566.621 476.5 566.812C475.468 567.399 474.726 568.37 474.375 569.5C474.221 569.997 474.201 570.502 474.219 571C474.142 571.12 474.041 571.222 473.969 571.344C473.683 571.825 473.504 572.37 473.344 572.906C473.171 573.484 472.979 574.609 473.156 575.25C473.382 576.067 473.598 576.907 473.844 577.719C474.079 578.495 474.788 579.311 475.25 579.969C475.736 580.661 476.304 581.359 476.906 582C477.468 582.886 478.006 583.767 478.562 584.656C480.285 587.408 482.054 590.157 483.781 592.906C484.611 594.227 485.435 595.534 486.281 596.844C486.438 597.086 486.66 597.469 486.844 597.688C487.133 598.031 487.309 598.901 487.719 598.719C491.381 597.085 494.857 594.981 498.125 592.656C498.438 592.434 497.908 591.925 497.781 591.562C497.7 591.331 497.546 591.106 497.406 590.875C497.402 590.868 497.411 590.851 497.406 590.844C497.365 590.767 497.322 590.702 497.281 590.625C497.263 590.591 497.237 590.565 497.219 590.531C497.203 590.501 497.203 590.467 497.188 590.438C497.05 590.18 497.053 590.18 496.906 589.906C496.544 589.231 496.178 588.548 495.812 587.875C494.867 586.133 493.9 584.42 492.938 582.688C492.24 581.432 491.544 580.16 490.844 578.906C489.914 577.242 488.969 575.579 488 573.938C487.725 573.472 487.254 572.474 486.844 572.156C486.755 572.088 486.652 572.037 486.562 571.969C486.489 571.851 486.416 571.743 486.344 571.625C486.365 571.698 486.385 571.771 486.406 571.844C486.376 571.821 486.342 571.804 486.312 571.781C486.06 571.257 485.863 570.715 485.469 570.25C485.402 570.175 484.813 571.184 485.406 570.188C485.588 569.882 484.906 569.659 484.656 569.406C484.12 568.948 483.528 568.553 482.875 568.281C482.798 568.249 482.704 568.249 482.625 568.219C482.241 567.801 481.909 567.291 481.469 567C480.655 566.462 479.756 566.24 478.781 566.219C478.649 566.216 478.506 566.21 478.375 566.219C478.373 566.202 478.311 566.202 478.312 566.219ZM486.938 573.75C486.966 573.855 487.002 573.957 487.031 574.062C487.048 574.122 487.022 574.19 487.031 574.25C487.018 574.231 487.013 574.207 487 574.188C486.988 574.041 486.959 573.896 486.938 573.75ZM474.875 579.25C475.016 579.416 475.223 579.476 475.375 579.625C475.41 579.698 475.432 579.771 475.469 579.844C475.347 579.722 475.468 579.837 474.875 579.25ZM475.594 579.812C475.936 580.12 476.272 580.427 476.656 580.656C476.579 580.613 476.481 580.608 476.406 580.562C476.18 580.424 475.85 580.172 475.656 580C475.637 579.937 475.614 579.875 475.594 579.812ZM478.062 581.25C478.297 581.326 478.54 581.387 478.781 581.438C478.532 581.387 478.305 581.327 478.062 581.25ZM496.688 589.688C496.772 589.817 496.859 589.911 496.938 590.062C496.861 589.934 496.764 589.816 496.688 589.688ZM485.875 595.906C485.95 596.062 486.018 596.219 486.094 596.375C486.002 596.216 485.952 596.062 485.875 595.906Z" fill="#000000" stroke="none"/>
</g>
<g opacity="1">
<path d="M418.125 573.75C413.095 573.777 408.06 573.736 403.031 573.875C401.11 573.928 399.202 574.14 397.281 574.219C395.435 574.294 393.596 574.282 391.75 574.344C383.27 574.628 374.776 575.852 366.281 575.562C362.439 575.526 359.287 578.595 359.25 582.438C359.213 586.28 362.283 589.432 366.125 589.469C371.354 589.41 376.571 588.765 381.75 588.094C385.519 587.605 389.291 587.118 393.031 586.438C394.841 586.108 396.624 585.684 398.438 585.375C400.315 585.055 402.218 584.89 404.094 584.562C408.483 583.796 412.846 582.93 417.25 582.25C427.472 580.672 437.81 579.503 448.156 579.25C455.63 579.067 463.28 579.351 470.562 581.188C475.22 582.362 479.672 584.273 483.125 587.688C479.771 583.497 474.987 580.955 470 579.188C463.044 576.722 455.627 575.619 448.312 574.875C438.293 573.856 428.189 573.697 418.125 573.75Z" fill="#000000" stroke="none"/>
</g>
<g opacity="1">
<path d="M441.812 577.875C438.124 578.95 436.019 582.811 437.094 586.5C438.169 590.189 442.03 592.325 445.719 591.25C447.756 590.27 448.835 589.449 449.812 587.344C450.908 584.984 451.393 581.757 454.312 581.062C452.274 578.701 448.966 579.117 446.156 578.75C445.715 578.692 445.285 578.592 444.844 578.531C444.466 578.479 444.061 578.481 443.688 578.406C443.507 578.37 443.361 578.248 443.188 578.188C442.785 578.046 442.237 577.925 441.812 577.875Z" fill="#000000" stroke="none"/>
</g>
<g opacity="1">
<path d="M436.719 575.156C433.798 575.168 430.689 575.774 428.094 577.125C424.785 579.079 423.671 583.348 425.625 586.656C427.579 589.965 431.848 591.047 435.156 589.094C435.147 589.058 435.059 589.131 435.062 589.094C435.073 588.975 435.701 588.741 435.75 588.719C435.896 588.653 436.041 588.564 436.188 588.5C437.436 587.96 438.723 587.523 439.938 586.906C440.933 586.401 441.954 585.997 442.969 585.531C444.887 584.651 446.774 583.705 448.719 582.875C449.64 582.482 450.566 582.112 451.5 581.75C451.955 581.574 452.487 581.444 452.906 581.188C453.342 580.92 453.647 580.607 453.906 580.156C453.996 580 454.058 579.823 454.125 579.656C454.125 579.656 454.125 579.625 454.125 579.625C454.163 579.385 454.256 579.145 454.219 578.906C454.142 578.408 454.016 577.883 453.781 577.438C453.628 577.147 453.346 576.96 453.094 576.75C452.435 576.203 451.608 576.207 450.781 576.406C450.848 576.386 450.932 576.343 450.875 576.344C450.823 576.344 451.038 576.334 451.031 576.312C451.021 576.28 450.322 576.251 450.312 576.25C450.179 576.239 450.04 576.229 449.906 576.219C448.683 576.12 447.472 575.992 446.25 575.875C445.723 575.825 445.182 575.804 444.656 575.75C443.496 575.63 442.351 575.394 441.188 575.312C440.594 575.271 440.001 575.337 439.406 575.312C438.39 575.271 437.68 575.152 436.719 575.156ZM450.812 581.375C450.978 581.398 451.523 581.413 451.656 581.531C451.691 581.562 451.547 581.529 451.5 581.531C451.381 581.536 451.277 581.55 451.156 581.531C451.036 581.512 450.938 581.411 450.812 581.375Z" fill="#000000" stroke="none"/>
</g>
<g opacity="1">
<path d="M457.344 571.125C454.033 571.217 450.712 572.4 447.688 573.656C446.497 574.151 445.379 574.808 444.219 575.375C443.885 575.37 443.553 575.411 443.219 575.406C441.776 575.387 440.348 575.424 438.906 575.438C434.88 575.474 430.867 575.421 426.844 575.25C423.002 575.225 419.837 578.314 419.812 582.156C419.794 584.997 421.504 587.435 423.938 588.531C423.705 588.669 423.496 588.814 423.469 589.062C423.426 589.452 422.25 590.094 422.25 590.094C423.097 589.615 424.017 589.249 424.875 588.781C425.48 588.958 426.088 589.152 426.75 589.156C424.501 589.615 424.108 589.62 424.5 589.625C425.793 589.64 427.057 589.258 428.344 589.125C429.383 589.018 430.425 589.054 431.469 589C433.847 588.878 436.229 588.655 438.594 588.375C441.769 587.999 444.787 587.258 447.875 586.469C448.829 586.225 449.802 586.078 450.75 585.812C453.022 585.176 455.276 584.166 457.375 583.094C459.583 581.966 462.142 580.455 463.156 578.062C463.378 577.54 463.561 576.943 463.594 576.375C463.809 572.661 460.546 571.036 457.344 571.125ZM456.875 578.562C456.906 578.569 456.938 578.555 456.969 578.562C456.997 578.569 457.464 578.664 457.438 578.75C457.423 578.798 457.329 578.765 457.281 578.75C457.145 578.707 457 578.642 456.875 578.562Z" fill="#000000" stroke="none"/>
</g>
<path d="M336.38 568.608L483.182 570.12" fill="none" opacity="1" stroke="#000000" stroke-linecap="butt" stroke-linejoin="round" stroke-width="15.2904"/>
<path d="M384.954 648.27L384.954 648.486" fill="none" opacity="1" stroke="#000000" stroke-linecap="butt" stroke-linejoin="round" stroke-width="15.2904"/>
<path d="M358.616 614.16L359.48 615.024" fill="none" opacity="1" stroke="#000000" stroke-linecap="butt" stroke-linejoin="round" stroke-width="15.2904"/>
<path d="M383.875 618.262L346.526 573.358" fill="none" opacity="1" stroke="#000000" stroke-linecap="butt" stroke-linejoin="round" stroke-width="15.2904"/>
<path d="M404.384 680.437L403.736 681.085" fill="none" opacity="1" stroke="#000000" stroke-linecap="butt" stroke-linejoin="round" stroke-width="15.2904"/>
<path d="M917.596 701.103C917.352 703.032 917.107 704.895 916.753 707.322C916.568 708.586 916.36 709.826 916.159 711.072L921.596 704.353L917.596 701.103Z" fill="#000000" fill-rule="nonzero" opacity="1" stroke="none"/>
<path d="M358.001 570.069L337.152 591.799" fill="none" opacity="1" stroke="#000000" stroke-linecap="butt" stroke-linejoin="round" stroke-width="15.2904"/>
<path d="M358.001 616.759L338.033 564.49" fill="none" opacity="1" stroke="#000000" stroke-linecap="butt" stroke-linejoin="round" stroke-width="15.2904"/>
<path d="M341.85 590.184C341.85 584.751 345.795 580.347 350.66 580.347C355.525 580.347 359.469 584.751 359.469 590.184C359.469 595.617 355.525 600.021 350.66 600.021C345.795 600.021 341.85 595.617 341.85 590.184Z" fill="#000000" fill-rule="nonzero" opacity="1" stroke="#000000" stroke-linecap="butt" stroke-linejoin="round" stroke-width="15.2904"/>
<path d="M339.059 583.881C339.059 583.581 348.555 583.338 360.269 583.338C371.983 583.338 381.48 583.581 381.48 583.881C381.48 584.181 371.983 584.424 360.269 584.424C348.555 584.424 339.059 584.181 339.059 583.881Z" fill="#000000" fill-rule="nonzero" opacity="1" stroke="#000000" stroke-linecap="butt" stroke-linejoin="round" stroke-width="15.2904"/>
<g opacity="1">
<path d="M333.062 560.219C332.161 560.16 331.22 560.278 330.312 560.594C326.684 561.857 324.768 565.84 326.031 569.469C327.614 573.453 329.21 577.456 331.219 581.25C331.84 582.423 332.579 583.527 333.219 584.688C333.643 585.457 333.981 586.262 334.406 587.031C335.263 588.583 336.307 590.062 337.25 591.562C338.905 594.195 340.54 596.832 342.188 599.469C347.246 607.564 352.38 615.617 357.625 623.594C354.303 614.7 351.002 605.789 348.188 596.719C347.282 593.801 346.426 590.863 345.656 587.906C345.22 586.231 344.892 584.505 344.406 582.844C344.167 582.027 343.852 581.227 343.625 580.406C343.284 579.173 343.083 577.924 342.75 576.688C341.683 572.721 340.37 568.808 339.188 564.875C338.24 562.154 335.768 560.395 333.062 560.219Z" fill="#000000" stroke="none"/>
</g>
<g opacity="1">
<path d="M333.375 567.844C332.474 567.77 331.537 567.887 330.625 568.188C326.975 569.389 324.986 573.319 326.188 576.969C327.287 579.7 328.319 582.545 329.812 585.094C330.116 585.611 330.507 586.078 330.812 586.594C331.413 587.606 331.918 588.671 332.562 589.656C334.17 592.115 335.86 594.509 337.469 596.969C340.982 602.342 344.494 607.714 348.094 613.031C346.449 606.876 344.812 600.719 343.562 594.469C342.999 591.652 342.617 588.842 342.219 586C342.061 584.876 341.743 583.776 341.562 582.656C341.471 582.086 341.494 581.477 341.406 580.906C340.977 578.108 340.116 575.361 339.406 572.625C338.505 569.888 336.077 568.066 333.375 567.844Z" fill="#000000" stroke="none"/>
</g>
<g opacity="1">
<path d="M330.75 565.938C329.848 565.88 328.907 565.995 328 566.312C324.374 567.582 322.48 571.53 323.75 575.156C324.981 578.118 326.154 581.161 327.656 584C328.115 584.868 328.671 585.662 329.125 586.531C329.493 587.235 329.754 587.969 330.156 588.656C332.975 593.464 336.297 597.939 339.531 602.469C342.644 606.829 345.649 611.285 348.656 615.719C347.069 610.592 345.43 605.471 343.844 600.344C342.955 597.471 342.012 594.607 341.281 591.688C340.737 589.515 340.526 587.333 340.219 585.125C340.112 584.356 339.86 583.636 339.719 582.875C339.541 581.914 339.485 580.931 339.312 579.969C338.741 576.787 337.767 573.664 336.875 570.562C335.923 567.843 333.456 566.109 330.75 565.938Z" fill="#000000" stroke="none"/>
</g>
<g opacity="1">
<path d="M468.688 575.75C466.527 575.763 464.537 577.088 462.969 578.656C462.623 579.002 462.137 579.455 461.875 579.875C461.732 580.104 461.668 580.392 461.531 580.625C461.07 581.409 460.507 582.02 460.156 582.875C459.672 584.054 459.424 585.291 459.156 586.531C458.859 590.362 461.7 593.734 465.531 594.031C469.362 594.329 472.734 591.456 473.031 587.625C474.429 586.313 474.89 585.889 474.406 586.312C474.015 586.655 473.456 586.875 472.938 586.844C472.729 586.831 472.902 586.426 472.875 586.219C472.851 586.03 472.842 585.845 472.812 585.656C472.699 584.928 472.425 584.583 472.188 583.938C472.132 583.788 472.103 583.622 472 583.5C471.393 582.786 470.52 583.314 469.781 582.938C469.664 582.878 469.317 582.444 469.5 582.344C470.042 582.046 470.935 582.275 471.469 582.438C472.537 582.763 473.547 583.35 474.469 583.969C474.642 584.085 474.8 584.189 474.969 584.312C475.122 584.425 475.489 584.473 475.438 584.656C475.262 585.275 475.813 585 475.812 585C475.615 583.396 475.199 581.818 474.531 580.344C474.043 579.265 473.431 578.222 472.594 577.375C472.086 576.861 471.562 576.512 470.906 576.219C470.163 575.886 469.408 575.746 468.688 575.75Z" fill="#000000" stroke="none"/>
</g>
<g opacity="1">
<path d="M469.594 571.562C468.694 571.646 467.815 571.92 466.969 572.375C463.584 574.193 462.307 578.428 464.125 581.812C465.07 583.228 465.999 584.662 467.094 585.969C467.63 586.609 468.281 587.08 468.844 587.688C469.057 587.918 469.206 588.196 469.406 588.438C469.806 588.921 470.375 589.304 470.844 589.719C471.629 590.414 472.351 591.139 473.031 591.938C476.172 595.622 478.948 599.657 481.844 603.531C481.437 600.815 480.994 598.101 480.656 595.375C480.284 592.374 479.997 589.363 479.531 586.375C479.376 585.378 479.333 584.244 479.031 583.281C478.935 582.973 478.767 582.688 478.688 582.375C478.539 581.792 478.549 581.18 478.406 580.594C477.956 578.745 477.107 576.967 476.375 575.219C475.011 572.68 472.293 571.311 469.594 571.562Z" fill="#000000" stroke="none"/>
</g>
<g opacity="1">
<path d="M475.438 572.969C473.603 572.772 471.68 573.226 470.219 574.25C468.702 575.312 467.793 576.832 467.094 578.5C465.938 582.164 467.961 586.063 471.625 587.219C473.61 587.845 475.63 587.466 477.281 586.469C478.348 587.028 479.46 587.492 480.438 588.156C480.866 588.448 481.455 589.508 481.719 589.062C482.193 588.261 482.781 589.875 482.781 589.875C482.632 586.687 482.257 583.489 481.719 580.344C481.428 578.644 481.08 577.045 480.094 575.594C479.027 574.025 477.272 573.166 475.438 572.969ZM480.375 582.688C481.576 586.275 481.767 587.19 481.562 586.281C481.293 585.082 480.857 583.915 480.312 582.812C480.328 582.767 480.36 582.734 480.375 582.688ZM472.531 584.812C472.699 584.808 472.873 584.851 473 584.875C473.727 585.013 474.414 585.07 475.125 585.312C475.547 585.456 475.903 585.754 476.312 585.938C475.333 586.192 474.323 586.278 473.344 585.969C473.143 585.905 472.007 585.487 472.125 585.094C472.188 584.883 472.363 584.817 472.531 584.812Z" fill="#000000" stroke="none"/>
</g>
<g opacity="1">
<path d="M479.844 562.062C478.94 562.079 478.034 562.266 477.156 562.656C473.646 564.219 472.062 568.334 473.625 571.844C475.639 575.943 477.624 580.088 479.875 584.062C480.561 585.274 481.385 586.41 482.062 587.625C482.545 588.491 482.919 589.386 483.406 590.25C484.457 592.115 485.666 593.935 486.75 595.781C488.212 598.271 489.615 600.779 491 603.312C495.995 612.45 500.549 621.831 504.781 631.344C502.574 621.096 499.923 610.969 497.219 600.844C496.321 597.484 495.404 594.116 494.531 590.75C494.128 589.193 493.803 587.604 493.344 586.062C493.057 585.1 492.673 584.178 492.375 583.219C491.956 581.87 491.674 580.473 491.25 579.125C489.865 574.721 488.043 570.476 486.344 566.188C485.172 563.555 482.554 562.012 479.844 562.062Z" fill="#000000" stroke="none"/>
</g>
<path d="M354.311 614.736L328.833 569.775" fill="none" opacity="1" stroke="#000000" stroke-linecap="butt" stroke-linejoin="round" stroke-width="15.2904"/>
<g opacity="1">
<path d="M354.417 572.682C350.062 569.481 344.881 567.914 339.717 566.455C312.296 558.703 343.973 582.473 348.651 588.113" fill="#000000" fill-rule="nonzero" stroke="none"/>
<path d="M335.469 560.5C331.742 560.382 326.256 560.553 325.062 565C324.95 565.419 324.907 565.879 324.906 566.312C324.905 566.877 324.991 567.43 325.156 567.969C326.091 571.017 329.253 573.575 331.625 575.5C335.069 578.294 338.728 580.811 342.344 583.375C344.474 584.886 346.715 586.366 348.656 588.125C348.656 588.125 349.744 581.403 349.531 583.25C349.356 584.773 348.922 586.255 348.375 587.688C348.306 587.869 348.148 587.374 348.031 587.219C347.899 587.044 347.761 586.891 347.625 586.719C347.311 586.319 347.013 585.922 346.688 585.531C345.69 584.33 344.648 583.148 343.625 581.969C341.231 579.209 338.825 576.488 336.594 573.594C335.756 572.507 334.978 571.365 334.219 570.219C335.047 570.577 335.877 570.918 336.719 571.25C337.209 571.443 337.729 571.588 338.219 571.781C339.432 572.26 340.543 572.91 341.719 573.469C343.466 574.3 345.255 575.039 346.938 576C347.433 576.283 348.241 576.774 348.719 577.094C348.991 577.276 349.488 577.362 349.531 577.688C349.778 579.53 349.522 577.69 350.438 578.406C353.591 580.602 357.929 579.809 360.125 576.656C362.321 573.503 361.559 569.165 358.406 566.969C356.12 565.515 353.767 564.278 351.219 563.344C349.338 562.654 347.409 562.088 345.438 561.719C344.041 561.457 342.616 561.381 341.219 561.125C340.049 560.91 338.944 560.662 337.75 560.594C336.99 560.55 336.23 560.524 335.469 560.5ZM332.312 566.281C332.467 566.377 332.448 566.769 332.438 566.906C332.436 566.93 332.409 566.945 332.406 566.969C332.361 566.841 332.297 566.728 332.281 566.594C332.281 566.588 332.217 566.222 332.312 566.281Z" fill="#000000" stroke="none"/>
</g>
</g>
</svg>
